#!OML:ASF H:\Not Pregnant\Project 1\Capture day 1\Session 1\non-pregnant.ASF
:FULLY-SPECIFIED
:DEGREES
364
root -5.0857 16.1685 34.6157 -179.857 -81.4957 -172.412
lowerback -6.85743 1.96638 1.90165
upperback -5.89143 2.31735 -0.24468
thorax -2.15482 1.00453 -1.19971
lowerneck 14.3099 -6.46366 -32.0495
upperneck 0.21411 -16.6533 41.2512
head 4.66488 -10.6168 22.3076
rclavicle -1.24737e-014 -9.24349e-015
rhumerus -49.4408 -21.0763 -55.7103
rradius 47.5015
rwrist -4.5593
rhand -30.3656 -14.8794
rfingers 7.12502
rthumb -3.67052 -44.8276
lclavicle -1.24737e-014 -9.24349e-015
lhumerus -67.8113 -0.192964 78.2921
lradius 43.3541
lwrist 48.2118
lhand -15.0148 -8.89652
lfingers 7.12502
lthumb 11.1505 20.7872
rfemur -13.3181 -8.67571 20.0025
rtibia 19.4656
rfoot -17.8922 15.8441
rtoes -10.3428
lfemur -11.1581 0.727457 -17.9608
ltibia 14.0073
lfoot -11.7621 1.92513
ltoes -21.633
365
root -5.08239 16.1684 34.6184 -180.394 -81.5823 -171.877
lowerback -6.85179 1.95869 2.01283
upperback -5.92077 2.30076 -0.272221
thorax -2.1839 0.99096 -1.29172
lowerneck 14.2196 -6.48216 -32.125
upperneck 0.146808 -16.6331 41.2281
head 4.66225 -10.5938 22.2982
rclavicle -5.22555e-014 -1.04362e-014
rhumerus -49.8453 -21.5851 -55.0896
rradius 45.82
rwrist -4.67164
rhand -29.1967 -15.2958
rfingers 7.12502
rthumb -2.54171 -45.2604
lclavicle -5.22555e-014 -1.04362e-014
lhumerus -67.2425 0.559287 77.1789
lradius 43.3487
lwrist 49.2648
lhand -15.382 -9.67502
lfingers 7.12502
lthumb 10.7963 20.0275
rfemur -13.2685 -8.67176 20.0696
rtibia 19.3896
rfoot -17.8508 15.7558
rtoes -10.3942
lfemur -11.237 0.687706 -17.8915
ltibia 14.1141
lfoot -11.8133 1.89336
ltoes -21.662
366
root -5.07853 16.1683 34.6207 -181.023 -81.6646 -171.247
lowerback -6.84257 1.95794 2.1316
upperback -5.94931 2.29332 -0.296365
thorax -2.21377 0.981754 -1.38412
lowerneck 14.1365 -6.50245 -32.2003
upperneck 0.0671687 -16.6128 41.2033
head 4.65432 -10.5707 22.2869
rclavicle 2.65378e-014 4.17448e-015
rhumerus -50.2681 -22.1528 -54.4044
rradius 44.1437
rwrist -4.61112
rhand -27.7437 -15.6535
rfingers 7.12502
rthumb -1.13836 -45.6303
lclavicle 2.65378e-014 4.17448e-015
lhumerus -66.6843 1.24187 76.1916
lradius 43.3858
lwrist 50.4897
lhand -15.6378 -10.4596
lfingers 7.12502
lthumb 10.5496 19.2557
rfemur -13.2159 -8.65408 20.1537
rtibia 19.2979
rfoot -17.8 15.6554
rtoes -10.4765
lfemur -11.3324 0.644265 -17.8053
ltibia 14.2433
lfoot -11.8667 1.86341
ltoes -21.6572
367
root -5.07457 16.1682 34.6227 -181.709 -81.7491 -170.56
lowerback -6.8311 1.95899 2.24789
upperback -5.97603 2.28869 -0.313352
thorax -2.24334 0.974186 -1.46768
lowerneck 14.0574 -6.52315 -32.2802
upperneck -0.0185798 -16.5899 41.1704
head 4.64193 -10.5453 22.2706
rclavicle 2.49351e-014 1.78906e-015
rhumerus -50.7096 -22.7574 -53.6577
rradius 42.4731
rwrist -4.3446
rhand -26.0371 -15.9742
rfingers 7.12502
rthumb 0.509881 -45.9533
lclavicle 2.49351e-014 1.78906e-015
lhumerus -66.1315 1.86811 75.3222
lradius 43.4555
lwrist 51.7489
lhand -15.7976 -11.1492
lfingers 7.12502
lthumb 10.3954 18.5738
rfemur -13.157 -8.64048 20.2457
rtibia 19.1986
rfoot -17.75 15.5508
rtoes -10.5893
lfemur -11.4322 0.607676 -17.7115
ltibia 14.3817
lfoot -11.9239 1.81565
ltoes -21.6069
368
root -5.07009 16.1683 34.6245 -182.412 -81.8291 -169.852
lowerback -6.81846 1.96173 2.36213
upperback -6.00383 2.28648 -0.326025
thorax -2.27486 0.967864 -1.54558
lowerneck 13.9762 -6.5418 -32.3675
upperneck -0.105807 -16.562 41.1328
head 4.62735 -10.5164 22.2537
rclavicle 9.70318e-015 3.27995e-015
rhumerus -51.1693 -23.3878 -52.8619
rradius 40.8123
rwrist -3.88301
rhand -24.1543 -16.2295
rfingers 7.12502
rthumb 2.32837 -46.1965
lclavicle 9.70318e-015 3.27995e-015
lhumerus -65.58 2.44966 74.5613
lradius 43.5444
lwrist 52.9911
lhand -15.8902 -11.7569
lfingers 7.12502
lthumb 10.3061 17.9705
rfemur -13.1109 -8.61245 20.341
rtibia 19.1077
rfoot -17.6933 15.4372
rtoes -10.6847
lfemur -11.5327 0.575541 -17.6146
ltibia 14.5057
lfoot -11.9712 1.75649
ltoes -21.5143
369
root -5.06534 16.1685 34.6263 -182.872 -81.9083 -169.385
lowerback -6.80508 1.95822 2.43397
upperback -6.0318 2.27795 -0.337727
thorax -2.30884 0.95972 -1.59914
lowerneck 13.8863 -6.55501 -32.4726
upperneck -0.186625 -16.5234 41.0821
head 4.61126 -10.4796 22.2337
rclavicle -7.34261e-015 -4.07509e-015
rhumerus -51.6382 -24.0096 -52.0327
rradius 39.1779
rwrist -3.25662
rhand -22.1621 -16.438
rfingers 7.12502
rthumb 4.25222 -46.3753
lclavicle -7.34261e-015 -4.07509e-015
lhumerus -65.0379 3.00993 73.9032
lradius 43.6548
lwrist 54.1589
lhand -15.9462 -12.257
lfingers 7.12502
lthumb 10.2521 17.4731
rfemur -13.0799 -8.58463 20.3967
rtibia 19.0355
rfoot -17.6373 15.3294
rtoes -10.7424
lfemur -11.6214 0.543471 -17.557
ltibia 14.6002
lfoot -12.0031 1.69103
ltoes -21.3949
